<?xml version="1.0" encoding="UTF-8" standalone="no"?><!DOCTYPE svg PUBLIC "-//W3C//DTD SVG 1.1//EN" "http://www.w3.org/Graphics/SVG/1.1/DTD/svg11.dtd"><svg width="100%" height="100%" viewBox="0 0 264 62" version="1.1" xmlns="http://www.w3.org/2000/svg" xmlns:xlink="http://www.w3.org/1999/xlink" xml:space="preserve" xmlns:serif="http://www.serif.com/" style="fill-rule:evenodd;clip-rule:evenodd;stroke-linejoin:round;stroke-miterlimit:1.41421;"><path d="M37.525,1.387c-13.038,0 -25.541,7.145 -32.254,18.584c-6.365,10.848 -3.98,19.573 0.375,24.121c2.267,2.367 5.128,4.212 7.894,5.997c0.762,0.49 1.522,0.981 2.271,1.481c3.198,2.139 7.043,4.548 11.311,6.207c3.865,1.502 11.4,3.601 18.44,0.773c1.056,-0.424 2.086,-0.928 3.065,-1.497c6.789,-3.954 10.97,-10.953 10.91,-18.264c-0.019,-2.359 0.037,-4.759 0.092,-7.079c0.063,-2.665 0.127,-5.42 0.077,-8.114c-0.108,-5.726 -0.812,-12.838 -5.334,-17.034c-3.278,-3.042 -8.3,-4.765 -14.929,-5.123c-0.639,-0.034 -1.28,-0.052 -1.918,-0.052m0.451,59.946c-4.613,0 -8.77,-1.256 -11.357,-2.262c-4.393,-1.707 -8.319,-4.166 -11.579,-6.346c-0.743,-0.497 -1.497,-0.983 -2.252,-1.47c-2.834,-1.828 -5.765,-3.718 -8.144,-6.203c-3.141,-3.28 -4.745,-7.589 -4.639,-12.461c0.094,-4.34 1.501,-8.946 4.069,-13.322c7.3,-12.442 21.211,-19.98 35.444,-19.216c6.961,0.376 12.276,2.223 15.799,5.491c4.905,4.553 5.664,12.025 5.777,18.026c0.051,2.723 -0.014,5.494 -0.078,8.173c-0.054,2.309 -0.11,4.697 -0.091,7.035c0.064,7.807 -4.38,15.269 -11.6,19.474c-1.036,0.604 -2.128,1.138 -3.246,1.586c-2.711,1.09 -5.481,1.495 -8.103,1.495" style="fill:#fff;fill-rule:nonzero;"/><path d="M59.242,42.673c-5.927,15.132 -26.492,17.248 -40.659,11.698c-14.167,-5.55 -16.572,-16.664 -10.645,-31.795c5.928,-15.131 21.329,-19.984 36.385,-17.349c16.907,2.959 20.847,22.315 14.919,37.446" style="fill:#ffe000;"/><path d="M62.032,29.764c-0.001,1.011 -0.083,2.033 -0.248,3.059c-0.932,5.776 -5.159,10.611 -9.756,13.954c-3.297,2.399 -6.968,4.214 -10.682,5.869c-3.66,1.63 -7.244,3.551 -11.192,4.417c-8.679,1.902 -16.398,-3.471 -20.793,-10.636c-6.58,-10.725 -6.155,-24.355 1.199,-34.57c2.933,-4.074 6.807,-7.874 11.769,-9.25c5.768,-1.6 12.022,0.922 17.122,3.531c4.211,2.155 8.257,4.626 12.447,6.824c6.3,3.304 10.143,9.784 10.134,16.802" style="fill:#00c956;"/><path d="M78.33,38.534l2.158,-10.178l-4.275,0l0.977,-4.681l4.275,0l1.139,-5.414l5.74,-1.263l-1.424,6.677l5.902,0l-0.977,4.681l-5.902,0l-1.995,9.282c-0.217,1.032 -0.122,1.771 0.285,2.218c0.407,0.448 1.193,0.672 2.361,0.672c0.434,0 0.855,-0.026 1.262,-0.081c0.407,-0.055 0.855,-0.135 1.343,-0.244l-0.977,4.518c-0.488,0.109 -1.099,0.21 -1.831,0.306c-0.733,0.094 -1.412,0.142 -2.036,0.142c-2.361,0 -4.065,-0.576 -5.109,-1.73c-1.045,-1.153 -1.35,-2.789 -0.916,-4.905" style="fill:#fff;fill-rule:nonzero;"/><path d="M102.347,40.447c0.841,0 1.642,-0.176 2.402,-0.529c0.76,-0.353 1.425,-0.835 1.995,-1.445c0.57,-0.611 1.017,-1.33 1.343,-2.158c0.326,-0.828 0.489,-1.703 0.489,-2.626c0,-1.601 -0.503,-2.931 -1.507,-3.989c-1.004,-1.059 -2.279,-1.588 -3.826,-1.588c-0.842,0 -1.642,0.177 -2.402,0.529c-0.76,0.353 -1.419,0.835 -1.975,1.445c-0.556,0.611 -0.997,1.323 -1.323,2.138c-0.325,0.814 -0.488,1.683 -0.488,2.605c0,1.628 0.502,2.972 1.506,4.03c1.004,1.059 2.266,1.588 3.786,1.588m-10.665,-5.374c0,-1.601 0.311,-3.12 0.936,-4.559c0.624,-1.438 1.472,-2.693 2.544,-3.766c1.072,-1.072 2.334,-1.92 3.786,-2.544c1.452,-0.624 2.978,-0.936 4.58,-0.936c1.465,0 2.843,0.258 4.132,0.773c1.289,0.516 2.395,1.229 3.318,2.137c0.922,0.91 1.648,1.989 2.178,3.237c0.529,1.248 0.793,2.592 0.793,4.03c0,1.602 -0.319,3.121 -0.956,4.56c-0.638,1.438 -1.493,2.693 -2.565,3.765c-1.073,1.072 -2.327,1.927 -3.766,2.564c-1.439,0.638 -2.958,0.957 -4.559,0.957c-1.466,0 -2.844,-0.258 -4.132,-0.773c-1.289,-0.516 -2.395,-1.228 -3.317,-2.137c-0.924,-0.909 -1.649,-1.995 -2.179,-3.257c-0.529,-1.262 -0.793,-2.612 -0.793,-4.051" style="fill:#fff;fill-rule:nonzero;"/><path d="M126.895,28.112c-0.841,0 -1.642,0.136 -2.401,0.407c-0.761,0.272 -1.453,0.665 -2.077,1.181l-1.791,8.345c0.515,0.733 1.235,1.31 2.158,1.73c0.922,0.421 1.913,0.631 2.972,0.631c1.872,0 3.453,-0.651 4.742,-1.954c1.289,-1.302 1.933,-2.89 1.933,-4.763c0,-1.574 -0.523,-2.896 -1.567,-3.969c-1.045,-1.072 -2.368,-1.608 -3.969,-1.608m-15.022,25.28l6.31,-29.718l5.415,0l-0.204,1.059c0.76,-0.434 1.553,-0.767 2.382,-0.997c0.827,-0.23 1.675,-0.346 2.544,-0.346c1.329,0 2.578,0.251 3.745,0.753c1.167,0.503 2.164,1.187 2.992,2.056c0.828,0.869 1.486,1.907 1.975,3.114c0.488,1.208 0.732,2.504 0.732,3.888c0,1.655 -0.312,3.209 -0.936,4.661c-0.624,1.452 -1.465,2.721 -2.524,3.806c-1.058,1.086 -2.307,1.941 -3.745,2.565c-1.439,0.624 -2.972,0.936 -4.6,0.936c-1.249,0 -2.416,-0.197 -3.501,-0.59c-1.086,-0.393 -2.036,-0.97 -2.85,-1.73l-2.279,10.543l-5.456,0Z" style="fill:#fff;fill-rule:nonzero;"/><path d="M150.506,27.99c-1.222,0 -2.321,0.387 -3.297,1.16c-0.978,0.774 -1.683,1.785 -2.117,3.033l10.177,0c-0.245,-1.248 -0.794,-2.259 -1.649,-3.033c-0.855,-0.773 -1.893,-1.16 -3.114,-1.16m7.613,14.696c-1.303,0.923 -2.593,1.594 -3.868,2.015c-1.276,0.421 -2.673,0.631 -4.193,0.631c-1.547,0 -2.986,-0.251 -4.315,-0.754c-1.33,-0.501 -2.47,-1.2 -3.419,-2.096c-0.951,-0.895 -1.69,-1.967 -2.22,-3.216c-0.529,-1.248 -0.793,-2.605 -0.793,-4.071c0,-1.6 0.305,-3.127 0.916,-4.579c0.61,-1.452 1.431,-2.714 2.463,-3.786c1.031,-1.072 2.245,-1.92 3.643,-2.544c1.398,-0.624 2.884,-0.937 4.458,-0.937c1.384,0 2.673,0.258 3.867,0.774c1.194,0.515 2.212,1.221 3.053,2.117c0.841,0.895 1.5,1.974 1.975,3.236c0.474,1.262 0.712,2.626 0.712,4.091c0,0.299 -0.014,0.618 -0.041,0.956c-0.027,0.34 -0.081,0.876 -0.162,1.609l-15.47,0c0.244,1.357 0.889,2.456 1.934,3.297c1.044,0.842 2.313,1.262 3.806,1.262c0.896,0 1.737,-0.135 2.524,-0.407c0.787,-0.271 1.479,-0.651 2.076,-1.14l3.054,3.542Z" style="fill:#fff;fill-rule:nonzero;"/><path d="M167.081,34.87c0,1.601 0.529,2.931 1.588,3.989c1.058,1.059 2.374,1.588 3.948,1.588c0.841,0 1.642,-0.143 2.402,-0.427c0.76,-0.286 1.452,-0.686 2.076,-1.201l1.791,-8.427c-0.569,-0.678 -1.309,-1.222 -2.218,-1.629c-0.91,-0.407 -1.893,-0.61 -2.951,-0.61c-1.846,0 -3.414,0.651 -4.702,1.954c-1.29,1.302 -1.934,2.89 -1.934,4.763m8.793,10.014l0.244,-1.058c-0.76,0.434 -1.561,0.767 -2.401,0.997c-0.842,0.231 -1.697,0.346 -2.565,0.346c-1.33,0 -2.572,-0.251 -3.725,-0.753c-1.154,-0.502 -2.151,-1.187 -2.992,-2.056c-0.842,-0.868 -1.506,-1.906 -1.995,-3.114c-0.488,-1.207 -0.733,-2.503 -0.733,-3.888c0,-1.655 0.312,-3.209 0.937,-4.661c0.624,-1.451 1.465,-2.72 2.524,-3.806c1.058,-1.085 2.306,-1.94 3.745,-2.565c1.438,-0.624 2.971,-0.936 4.6,-0.936c1.248,0 2.415,0.19 3.501,0.57c1.085,0.38 2.049,0.923 2.89,1.628l1.954,-9.201l5.74,-1.22l-6.309,29.717l-5.415,0Z" style="fill:#fff;fill-rule:nonzero;"/><path d="M11.334,11.098c2.108,-2.341 4.891,-4.117 8.017,-5.18c2.384,-0.811 4.903,-1.223 7.418,-1.274c4.102,-0.083 8.385,0.88 12.368,1.798c7.549,1.74 16.498,5.051 19.323,13.007c0.956,2.693 1.205,5.599 1.036,8.451c-0.697,11.726 -9.253,23.273 -20.555,26.792c-4.34,1.352 -9.126,1.428 -13.398,-0.129c-6.028,-2.195 -10.466,-7.416 -13.014,-13.16c-2.961,-6.675 -5.978,-13.911 -5.2,-21.375c0.362,-3.472 1.821,-6.504 4.005,-8.93" style="fill:#681390;"/><path d="M29.059,33.161c-0.3,0.04 -0.618,0.061 -0.945,0.061c-1.027,0 -1.393,-0.235 -1.52,-0.375c-0.262,-0.288 -0.204,-0.886 -0.109,-1.335l1.513,-7.042l3.118,0l0.926,-4.359c0.049,-0.227 0.247,-0.389 0.478,-0.395l-3.524,0l1.012,-4.743c0.035,-0.168 -0.016,-0.341 -0.137,-0.461c-0.095,-0.095 -0.223,-0.146 -0.354,-0.146c-0.036,0 -0.072,0.004 -0.108,0.012l-4.599,1.011c-0.193,0.042 -0.343,0.194 -0.384,0.387l-0.829,3.94l-3.018,0c-0.238,0 -0.443,0.167 -0.491,0.399l-0.783,3.752c-0.031,0.147 0.007,0.301 0.102,0.418c0.095,0.118 0.238,0.185 0.389,0.185l2.806,0l-1.601,7.554c-0.381,1.853 -0.093,3.323 0.854,4.368c0.931,1.03 2.434,1.551 4.465,1.551c0.518,0 1.089,-0.039 1.696,-0.118c0.096,-0.012 0.183,-0.025 0.273,-0.037l0.99,-4.662c-0.074,0.012 -0.15,0.026 -0.22,0.035" style="fill:#fff;fill-rule:nonzero;"/><path d="M42.674,32.21c-0.943,0.954 -2.07,1.418 -3.443,1.418c-0.774,0 -1.505,-0.155 -2.174,-0.461c-0.58,-0.264 -1.049,-0.616 -1.399,-1.049l1.35,-6.288c0.419,-0.324 0.883,-0.577 1.38,-0.754c0.551,-0.198 1.142,-0.297 1.755,-0.297c1.153,0 2.076,0.372 2.822,1.136c0.75,0.77 1.114,1.696 1.114,2.831c0,1.376 -0.46,2.509 -1.405,3.464m6.058,-7.159c-0.414,-1.021 -0.98,-1.913 -1.685,-2.653c-0.706,-0.742 -1.568,-1.334 -2.562,-1.762c-0.995,-0.428 -2.071,-0.644 -3.199,-0.644c-0.737,0 -1.468,0.099 -2.174,0.295c-0.377,0.105 -0.748,0.236 -1.111,0.392c-0.008,-0.101 -0.047,-0.198 -0.113,-0.277c-0.095,-0.116 -0.237,-0.182 -0.387,-0.182l-4.339,0c-0.004,0 -0.008,0.002 -0.012,0.002c-0.231,0.006 -0.43,0.168 -0.478,0.395l-0.926,4.36l-1.838,8.655l-0.989,4.661l-1.304,6.139c-0.031,0.147 0.006,0.302 0.101,0.419c0.095,0.118 0.239,0.186 0.39,0.186l4.371,0c0.236,0 0.441,-0.164 0.491,-0.395l1.653,-7.645c0.542,0.394 1.144,0.711 1.797,0.948c0.921,0.333 1.923,0.502 2.976,0.502c1.368,0 2.675,-0.266 3.885,-0.792c1.208,-0.524 2.272,-1.252 3.161,-2.165c0.886,-0.908 1.601,-1.985 2.124,-3.202c0.525,-1.222 0.791,-2.545 0.791,-3.933c0,-1.168 -0.209,-2.28 -0.623,-3.304" style="fill:#fff;fill-rule:nonzero;"/><path d="M194.56,23.675l-4.477,21.209l-5.455,0l4.478,-21.209l5.454,0Z" style="fill:#fff;fill-rule:nonzero;"/><path d="M194.015,44.884l4.478,-21.209l5.454,0l-0.325,1.506c0.841,-0.597 1.75,-1.051 2.727,-1.364c0.978,-0.311 1.995,-0.468 3.053,-0.468c1.248,0 2.361,0.224 3.338,0.672c0.978,0.447 1.764,1.065 2.362,1.852c0.596,0.788 1.003,1.724 1.221,2.809c0.217,1.086 0.189,2.267 -0.082,3.542l-2.686,12.66l-5.496,0l2.605,-12.131c0.271,-1.384 0.075,-2.51 -0.59,-3.379c-0.665,-0.868 -1.662,-1.303 -2.992,-1.303c-0.842,0 -1.649,0.163 -2.422,0.489c-0.773,0.325 -1.459,0.814 -2.056,1.465l-3.135,14.859l-5.454,0Z" style="fill:#fff;fill-rule:nonzero;"/><path d="M223.102,34.87c0,1.601 0.53,2.931 1.588,3.989c1.059,1.059 2.375,1.588 3.949,1.588c0.841,0 1.642,-0.143 2.402,-0.427c0.76,-0.286 1.451,-0.686 2.076,-1.201l1.791,-8.427c-0.57,-0.678 -1.31,-1.222 -2.218,-1.629c-0.91,-0.407 -1.893,-0.61 -2.952,-0.61c-1.846,0 -3.413,0.651 -4.702,1.954c-1.289,1.302 -1.934,2.89 -1.934,4.763m8.794,10.014l0.244,-1.058c-0.76,0.434 -1.561,0.767 -2.402,0.997c-0.841,0.231 -1.696,0.346 -2.564,0.346c-1.331,0 -2.572,-0.251 -3.726,-0.753c-1.153,-0.502 -2.15,-1.187 -2.991,-2.056c-0.842,-0.868 -1.507,-1.906 -1.995,-3.114c-0.489,-1.207 -0.733,-2.503 -0.733,-3.888c0,-1.655 0.312,-3.209 0.937,-4.661c0.624,-1.451 1.464,-2.72 2.523,-3.806c1.059,-1.085 2.306,-1.94 3.746,-2.565c1.438,-0.624 2.971,-0.936 4.6,-0.936c1.248,0 2.415,0.19 3.501,0.57c1.085,0.38 2.048,0.923 2.89,1.628l1.954,-9.201l5.74,-1.22l-6.31,29.717l-5.414,0Z" style="fill:#fff;fill-rule:nonzero;"/><path d="M251.873,40.447c0.841,0 1.642,-0.176 2.402,-0.529c0.76,-0.353 1.425,-0.835 1.995,-1.445c0.57,-0.611 1.018,-1.33 1.343,-2.158c0.326,-0.828 0.489,-1.703 0.489,-2.626c0,-1.601 -0.503,-2.931 -1.507,-3.989c-1.004,-1.059 -2.279,-1.588 -3.826,-1.588c-0.842,0 -1.642,0.177 -2.402,0.529c-0.76,0.353 -1.418,0.835 -1.974,1.445c-0.557,0.611 -0.997,1.323 -1.323,2.138c-0.326,0.814 -0.489,1.683 -0.489,2.605c0,1.628 0.502,2.972 1.506,4.03c1.004,1.059 2.266,1.588 3.786,1.588m-10.665,-5.374c0,-1.601 0.311,-3.12 0.936,-4.559c0.624,-1.438 1.472,-2.693 2.544,-3.766c1.072,-1.072 2.334,-1.92 3.786,-2.544c1.452,-0.624 2.978,-0.936 4.58,-0.936c1.466,0 2.842,0.258 4.132,0.773c1.289,0.516 2.395,1.229 3.318,2.137c0.922,0.91 1.649,1.989 2.178,3.237c0.529,1.248 0.794,2.592 0.794,4.03c0,1.602 -0.32,3.121 -0.957,4.56c-0.638,1.438 -1.493,2.693 -2.565,3.765c-1.072,1.072 -2.327,1.927 -3.765,2.564c-1.439,0.638 -2.959,0.957 -4.56,0.957c-1.465,0 -2.843,-0.258 -4.132,-0.773c-1.289,-0.516 -2.395,-1.228 -3.318,-2.137c-0.923,-0.909 -1.648,-1.995 -2.177,-3.257c-0.53,-1.262 -0.794,-2.612 -0.794,-4.051" style="fill:#fff;fill-rule:nonzero;"/><path d="M189.794,18.198c0.181,-1.712 1.685,-3.05 3.361,-2.988c1.675,0.061 2.888,1.498 2.707,3.209c-0.18,1.712 -1.685,3.049 -3.361,2.988c-1.675,-0.061 -2.887,-1.498 -2.707,-3.209" style="fill:#fff;fill-rule:nonzero;"/></svg>